<svg id="visual" viewBox="0 0 900 450" width="900" height="450" xmlns="http://www.w3.org/2000/svg" xmlns:xlink="http://www.w3.org/1999/xlink" version="1.1"><path d="M0 131L25 124.3C50 117.7 100 104.3 150 107C200 109.7 250 128.3 300 126.2C350 124 400 101 450 98.3C500 95.7 550 113.3 600 124.2C650 135 700 139 750 127.8C800 116.7 850 90.3 875 77.2L900 64L900 451L875 451C850 451 800 451 750 451C700 451 650 451 600 451C550 451 500 451 450 451C400 451 350 451 300 451C250 451 200 451 150 451C100 451 50 451 25 451L0 451Z" fill="#20d852"></path><path d="M0 174L25 165.3C50 156.7 100 139.3 150 144.5C200 149.7 250 177.3 300 183.3C350 189.3 400 173.7 450 167.5C500 161.3 550 164.7 600 168.5C650 172.3 700 176.7 750 175.7C800 174.7 850 168.3 875 165.2L900 162L900 451L875 451C850 451 800 451 750 451C700 451 650 451 600 451C550 451 500 451 450 451C400 451 350 451 300 451C250 451 200 451 150 451C100 451 50 451 25 451L0 451Z" fill="#1dcb4f"></path><path d="M0 169L25 170.7C50 172.3 100 175.7 150 185.2C200 194.7 250 210.3 300 214.7C350 219 400 212 450 212.7C500 213.3 550 221.7 600 224.5C650 227.3 700 224.7 750 217.2C800 209.7 850 197.3 875 191.2L900 185L900 451L875 451C850 451 800 451 750 451C700 451 650 451 600 451C550 451 500 451 450 451C400 451 350 451 300 451C250 451 200 451 150 451C100 451 50 451 25 451L0 451Z" fill="#1abd4b"></path><path d="M0 269L25 268.3C50 267.7 100 266.3 150 264.8C200 263.3 250 261.7 300 261.8C350 262 400 264 450 267.2C500 270.3 550 274.7 600 271.3C650 268 700 257 750 258.5C800 260 850 274 875 281L900 288L900 451L875 451C850 451 800 451 750 451C700 451 650 451 600 451C550 451 500 451 450 451C400 451 350 451 300 451C250 451 200 451 150 451C100 451 50 451 25 451L0 451Z" fill="#18b048"></path><path d="M0 319L25 313.8C50 308.7 100 298.3 150 300.5C200 302.7 250 317.3 300 320.2C350 323 400 314 450 303.7C500 293.3 550 281.7 600 277C650 272.3 700 274.7 750 285.7C800 296.7 850 316.3 875 326.2L900 336L900 451L875 451C850 451 800 451 750 451C700 451 650 451 600 451C550 451 500 451 450 451C400 451 350 451 300 451C250 451 200 451 150 451C100 451 50 451 25 451L0 451Z" fill="#17a344"></path><path d="M0 358L25 354.7C50 351.3 100 344.7 150 342.5C200 340.3 250 342.7 300 340.8C350 339 400 333 450 337.7C500 342.3 550 357.7 600 365.8C650 374 700 375 750 364.5C800 354 850 332 875 321L900 310L900 451L875 451C850 451 800 451 750 451C700 451 650 451 600 451C550 451 500 451 450 451C400 451 350 451 300 451C250 451 200 451 150 451C100 451 50 451 25 451L0 451Z" fill="#169640"></path><path d="M0 384L25 388.7C50 393.3 100 402.7 150 403C200 403.3 250 394.7 300 387.8C350 381 400 376 450 376.2C500 376.3 550 381.7 600 386C650 390.3 700 393.7 750 397.8C800 402 850 407 875 409.5L900 412L900 451L875 451C850 451 800 451 750 451C700 451 650 451 600 451C550 451 500 451 450 451C400 451 350 451 300 451C250 451 200 451 150 451C100 451 50 451 25 451L0 451Z" fill="#158a3c"></path></svg>