<svg id="visual" viewBox="0 0 600 900" width="600" height="900" xmlns="http://www.w3.org/2000/svg" xmlns:xlink="http://www.w3.org/1999/xlink" version="1.1"><path d="M0 208L16.7 207.5C33.3 207 66.7 206 100 204.8C133.3 203.7 166.7 202.3 200 204.7C233.3 207 266.7 213 300 217.3C333.3 221.7 366.7 224.3 400 228.3C433.3 232.3 466.7 237.7 500 241.5C533.3 245.3 566.7 247.7 583.3 248.8L600 250L600 901L583.3 901C566.7 901 533.3 901 500 901C466.7 901 433.3 901 400 901C366.7 901 333.3 901 300 901C266.7 901 233.3 901 200 901C166.7 901 133.3 901 100 901C66.7 901 33.3 901 16.7 901L0 901Z" fill="#3ecc3a"></path><path d="M0 353L16.7 355.8C33.3 358.7 66.7 364.3 100 364.5C133.3 364.7 166.7 359.3 200 351.5C233.3 343.7 266.7 333.3 300 327.7C333.3 322 366.7 321 400 325.5C433.3 330 466.7 340 500 349.5C533.3 359 566.7 368 583.3 372.5L600 377L600 901L583.3 901C566.7 901 533.3 901 500 901C466.7 901 433.3 901 400 901C366.7 901 333.3 901 300 901C266.7 901 233.3 901 200 901C166.7 901 133.3 901 100 901C66.7 901 33.3 901 16.7 901L0 901Z" fill="#34bd31"></path><path d="M0 508L16.7 499.3C33.3 490.7 66.7 473.3 100 473.2C133.3 473 166.7 490 200 492.8C233.3 495.7 266.7 484.3 300 478C333.3 471.7 366.7 470.3 400 472.3C433.3 474.3 466.7 479.7 500 484.5C533.3 489.3 566.7 493.7 583.3 495.8L600 498L600 901L583.3 901C566.7 901 533.3 901 500 901C466.7 901 433.3 901 400 901C366.7 901 333.3 901 300 901C266.7 901 233.3 901 200 901C166.7 901 133.3 901 100 901C66.7 901 33.3 901 16.7 901L0 901Z" fill="#2aae29"></path><path d="M0 602L16.7 606.5C33.3 611 66.7 620 100 626.2C133.3 632.3 166.7 635.7 200 632C233.3 628.3 266.7 617.7 300 617.3C333.3 617 366.7 627 400 624C433.3 621 466.7 605 500 606.2C533.3 607.3 566.7 625.7 583.3 634.8L600 644L600 901L583.3 901C566.7 901 533.3 901 500 901C466.7 901 433.3 901 400 901C366.7 901 333.3 901 300 901C266.7 901 233.3 901 200 901C166.7 901 133.3 901 100 901C66.7 901 33.3 901 16.7 901L0 901Z" fill="#209f21"></path><path d="M0 728L16.7 735C33.3 742 66.7 756 100 757.8C133.3 759.7 166.7 749.3 200 746.2C233.3 743 266.7 747 300 748.8C333.3 750.7 366.7 750.3 400 751.5C433.3 752.7 466.7 755.3 500 751.3C533.3 747.3 566.7 736.7 583.3 731.3L600 726L600 901L583.3 901C566.7 901 533.3 901 500 901C466.7 901 433.3 901 400 901C366.7 901 333.3 901 300 901C266.7 901 233.3 901 200 901C166.7 901 133.3 901 100 901C66.7 901 33.3 901 16.7 901L0 901Z" fill="#149118"></path></svg>